<svg xmlns="http://www.w3.org/2000/svg" viewBox="0 0 16.03 14"><defs><style>.cls-1{fill:#fff;}.cls-2{fill:#300075;}.cls-2,.cls-3{fill-rule:evenodd;}.cls-3{fill:#ae00cc;}</style></defs><g id="Layer_2" data-name="Layer 2"><g id="Layer_1-2" data-name="Layer 1"><rect class="cls-1" x="0.03" width="16" height="14"/><path class="cls-2" d="M3.05,11.74a11.75,11.75,0,0,1-3,.48c3.48,3,6.21,1.11,8.5-.51a14.14,14.14,0,0,1,2.17-1.36,14.5,14.5,0,0,0-2.21.11,22.72,22.72,0,0,1-2.87.13,11.22,11.22,0,0,1-2.54,1.15"/><path class="cls-3" d="M.77,5.82c1.49,4.37,4.82,4.06,7.61,3.81a14.27,14.27,0,0,1,2.56-.1,16.86,16.86,0,0,0-2-1A20.82,20.82,0,0,1,6.54,7.27,10.57,10.57,0,0,1,3.7,7,12,12,0,0,1,.77,5.82"/><path class="cls-3" d="M4.63.67C3.74,5.2,6.78,6.59,9.32,7.77a10.86,10.86,0,0,1,2.59,1.45l.13.12a5.18,5.18,0,0,0-.24-2.41,3,3,0,0,0-1.48-1.44h0l-.68-.35a11,11,0,0,1-5-4.47"/><path class="cls-2" d="M11.2,5A3.43,3.43,0,0,1,12.57,6.6,5.55,5.55,0,0,1,12.89,9a7,7,0,0,0,.4-.91C13.75,7,14.13,6,16,5.76a6.8,6.8,0,0,0-.8-.71l-.06,0,0-.06a2.14,2.14,0,0,0-2-1A3.9,3.9,0,0,0,11.2,5"/></g></g></svg>