<svg xmlns="http://www.w3.org/2000/svg" viewBox="0 0 405.66 362.78"><defs><style>.cls-1{fill:#300075;}.cls-1,.cls-2{fill-rule:evenodd;}.cls-2{fill:#ae00cc;}</style></defs><g id="Layer_2" data-name="Layer 2"><g id="Layer_2-2" data-name="Layer 2"><text/><path class="cls-1" d="M77.22,280c-21.66,6.61-47,11.3-77.22,12.27,88,76.9,157.08,28,215-13,19.16-13.57,37.22-26.36,54.86-34.37-16.31-1-35.51.82-55.84,2.7-23.43,2.18-48.22,4.48-72.59,3.29C124.15,261.26,103.5,272,77.22,280"/><path class="cls-2" d="M19.39,130.4C57.13,241,141.45,233.15,212.13,226.59c23.36-2.17,45.39-4.22,64.67-2.34-13.63-9-31.13-17-49.65-25.54-20.37-9.37-41.86-19.25-61.59-31.59a283.07,283.07,0,0,1-71.85-7.86A313,313,0,0,1,19.39,130.4"/><path class="cls-2" d="M117.12,0C94.6,114.52,171.47,149.89,235.91,179.53c25.25,11.61,48.79,22.44,65.43,36.77,1.13,1,2.21,1.95,3.27,2.95,2.25-27.65-.16-46.82-6.13-60.88-7.3-17.19-20.6-27.22-37.45-36.45l0,0v0c-5.54-3-11.18-5.91-17.1-8.91-36.8-18.65-83.3-42.22-126.77-113"/><path class="cls-1" d="M283.25,110.59c15,9.73,27,21.43,34.66,39.51,6.46,15.21,9.54,34.69,8.32,61.13a228.33,228.33,0,0,0,10.08-23c11.56-29.31,21.06-53.37,69.35-59.46-8.14-7.81-15.33-14.56-20.38-17.87l-1.45-1-1.07-1.36c-17-21.57-34.35-28.68-51.6-25.8-15.56,2.59-31.72,12.8-47.91,27.78"/><text/></g></g></svg>