<?xml version="1.0" encoding="utf-8"?>
<!-- Generator: Adobe Illustrator 26.0.0, SVG Export Plug-In . SVG Version: 6.00 Build 0)  -->
<svg version="1.1" id="Layer_1" xmlns="http://www.w3.org/2000/svg" xmlns:xlink="http://www.w3.org/1999/xlink" x="0px" y="0px"
	 viewBox="0 0 1177.2 214" style="enable-background:new 0 0 1177.2 214;" xml:space="preserve">
<style type="text/css">
	.st0{fill-rule:evenodd;clip-rule:evenodd;fill:#300075;}
	.st1{fill-rule:evenodd;clip-rule:evenodd;fill:#AE00CC;}
	.st2{enable-background:new    ;}
	.st3{fill:#300075;}
</style>
<g id="Layer_1-2">
	<path class="st0" d="M46.1,167.2c-15,4.5-30.5,6.9-46.1,7.3c52.5,45.9,93.8,16.7,128.4-7.8c11.4-8.1,22.2-15.7,32.8-20.5
		c-9.7-0.6-21.2,0.5-33.3,1.6c-14,1.3-28.8,2.7-43.3,2C72.5,157.2,59.6,163.1,46.1,167.2"/>
	<path class="st1" d="M11.6,77.9c22.5,66,72.9,61.3,115.1,57.4c14-1.3,27.1-2.5,38.6-1.4c-8.1-5.4-18.6-10.2-29.6-15.2
		c-12.2-5.6-25-11.5-36.8-18.9C84.4,100.1,70,98.5,56,95.1C40.5,91.3,25.6,85.5,11.6,77.9"/>
	<path class="st1" d="M69.9,0c-13.4,68.4,32.5,89.5,70.9,107.2c15.1,6.9,29.1,13.4,39.1,22c0.7,0.6,1.3,1.2,1.9,1.8
		c1.3-16.5-0.1-28-3.7-36.4c-4.4-10.3-12.3-16.2-22.4-21.8l0,0c-3.3-1.8-6.7-3.5-10.2-5.3C123.7,56.3,95.9,42.3,69.9,0"/>
	<path class="st0" d="M169.1,66c9,5.8,16.1,12.8,20.7,23.6c3.9,9.1,5.7,20.7,5,36.5c2.2-4.5,4.2-9,6-13.7
		c6.9-17.5,12.6-31.9,41.4-35.5c-4.9-4.7-9.2-8.7-12.2-10.7l-0.9-0.6l-0.6-0.8C218.4,52,208,47.7,197.7,49.4
		C188.4,51,178.8,57.1,169.1,66"/>
	<g class="st2">
		<path class="st3" d="M273.4,85h10.9v14.8c4-9.2,13-16.2,26.9-16.2v11.9c-16.3,0-26.9,9.2-26.9,26.2v33.1h-10.9V85z"/>
	</g>
	<g class="st2">
		<path class="st3" d="M314.8,119.9c0-20.5,13.6-36.4,32.9-36.4c11.2,0,21.1,4.6,26.2,13.6V85h10.9v69.7h-10.9v-12.2
			c-5.2,9.2-15,13.6-26.2,13.6C328.4,156.2,314.8,140.1,314.8,119.9z M373.9,119.9c0-14.6-10.5-25.8-23.8-25.8
			c-13.9,0-24.2,10.9-24.2,25.8c0,14.8,10.3,25.6,24.2,25.6C363.5,145.6,373.9,134.5,373.9,119.9z"/>
	</g>
	<g class="st2">
		<path class="st3" d="M390.5,85h11l19.8,44.5c2.9,6.4,5,13.9,5,13.9s2.1-7.4,5-13.9L451,85h11l-30.6,70.2h-10L390.5,85z"/>
	</g>
	<g class="st2">
		<path class="st3" d="M463.1,119.9c0-20.2,15.2-36.4,35.1-36.4c18.6,0,33.4,16,33.4,35.9c0,2-0.3,4.2-0.3,4.3h-56.9
			c1.7,13.9,12.5,22.6,25.3,22.6c7.9,0,15.8-2.7,21.5-7.4l4.7,8c-7.4,5.9-16.8,9.2-26.3,9.2C479.9,156.2,463.1,142,463.1,119.9z
			 M520.9,115.5c-1.1-12.9-11-22.2-23.2-22.2c-11.9,0-21.6,9.2-23.2,22.2H520.9z"/>
		<path class="st3" d="M542.8,85h10.9v11.9c4.9-8.4,13.9-13.3,24.2-13.3c17.5,0,25.2,10.6,25.2,28.9v42.2h-10.9v-40.8
			c0-12.9-4.7-19.8-17.3-19.8c-12.5,0-21.2,9.7-21.2,21.3v39.2h-10.9V85z"/>
		<path class="st3" d="M640,119.9c0-20.5,13.6-36.4,32.9-36.4c11.2,0,21.1,4.6,26.2,13.6V85H710v69.7h-10.9v-12.2
			c-5.2,9.2-15,13.6-26.2,13.6C653.6,156.2,640,140.1,640,119.9z M699.1,119.9c0-14.6-10.5-25.8-23.8-25.8
			c-13.9,0-24.2,10.9-24.2,25.8c0,14.8,10.3,25.6,24.2,25.6C688.7,145.6,699.1,134.5,699.1,119.9z"/>
		<path class="st3" d="M724,85h10.9v11.9c4.9-8.4,13.9-13.3,24.2-13.3c17.5,0,25.2,10.6,25.2,28.9v42.2h-10.9v-40.8
			c0-12.9-4.7-19.8-17.3-19.8c-12.5,0-21.2,9.7-21.2,21.3v39.2H724V85z"/>
		<path class="st3" d="M794.4,119.9c0-20.5,13.6-36.4,32.9-36.4c11.2,0,21.1,4.6,26.2,13.6V85h10.9v69.7h-10.9v-12.2
			c-5.2,9.2-15,13.6-26.2,13.6C808,156.2,794.4,140.1,794.4,119.9z M853.5,119.9c0-14.6-10.5-25.8-23.8-25.8
			c-13.9,0-24.2,10.9-24.2,25.8c0,14.8,10.3,25.6,24.2,25.6C843,145.6,853.5,134.5,853.5,119.9z"/>
		<path class="st3" d="M878.4,60.5h10.9v94.2h-10.9V60.5z"/>
	</g>
	<g class="st2">
		<path class="st3" d="M905.2,165.5c7.6,0,12.3-2.1,17-12.2l1.6-3.2L892.4,85h11.3l21.9,46.8c1.6,3.3,3.2,7.9,3.2,7.9
			s2.1-5.7,3.3-8.3L952.9,85h11.2l-33.2,73.2c-7.6,16.5-17.5,17.6-25.6,17.6V165.5z"/>
	</g>
	<g class="st2">
		<path class="st3" d="M974.1,133.8V94h-10.5v-9h10.5v-15l10.9-2v17h23.8v9H985v40.1c0,9.6,4.2,12.3,9.7,12.3
			c6.4,0,11.5-3.9,11.5-3.9l3.6,8.4c-2.7,1.9-8.4,5.2-16,5.2C981.4,156.2,974.1,150.1,974.1,133.8z"/>
		<path class="st3" d="M1016.6,65.4c0-4,3.2-7.3,7.2-7.3s7.3,3.3,7.3,7.3s-3.3,7.2-7.3,7.2S1016.6,69.4,1016.6,65.4z M1018.3,85
			h10.9v69.7h-10.9V85z"/>
		<path class="st3" d="M1040.4,119.9c0-20.3,16.2-36.4,36.7-36.4c9.6,0,18.3,3.4,24.9,9.3l-6.9,7.7c-4.3-4-10.6-6.4-17.9-6.4
			c-14.6,0-25.6,10.9-25.6,25.8c0,14.5,10.6,25.6,25.9,25.6c7.9,0,15-3,19.9-7.9l6.3,8.2c-6.7,6.4-16.2,10.3-26.6,10.3
			C1056.5,156.2,1040.4,140.3,1040.4,119.9z"/>
		<path class="st3" d="M1108.7,145.6l4.4-8.9c5.2,5,12.6,9.2,22.8,9.2c9.6,0,17.5-4.4,17.5-10.7c0-7.3-8.4-9.3-16.9-11.5
			c-12.9-3.3-24.6-6.9-24.6-20.2c0-12.6,13.2-19.9,24.9-19.9c9.6,0,16.6,2.6,23.8,7.4l-4.3,8.9c-5.9-4-12-6-19.3-6
			c-7.2,0-13.9,4-13.9,9.5c0,6.9,7.7,8.4,15.9,10.2c12.6,2.9,25.6,7.6,25.6,21.3c0,14.8-15,21.3-28.6,21.3
			C1121.7,156.2,1112.7,149.7,1108.7,145.6z"/>
	</g>
</g>
</svg>
