<svg xmlns="http://www.w3.org/2000/svg" viewBox="0 0 1014.89 198.67"><defs><style>.cls-1,.cls-3{fill:#300075;}.cls-1,.cls-2{fill-rule:evenodd;}.cls-2{fill:#ae00cc;}</style></defs><g id="Layer_2" data-name="Layer 2"><g id="Layer_1-2" data-name="Layer 1"><path class="cls-1" d="M46.1,167.2A176,176,0,0,1,0,174.5c52.5,45.9,93.8,16.7,128.4-7.8,11.4-8.1,22.2-15.7,32.8-20.5-9.7-.6-21.2.5-33.3,1.6-14,1.3-28.8,2.7-43.3,2a166.7,166.7,0,0,1-38.5,17.4"/><path class="cls-2" d="M11.6,77.9c22.5,66,72.9,61.3,115.1,57.4,14-1.3,27.1-2.5,38.6-1.4-8.1-5.4-18.6-10.2-29.6-15.2-12.2-5.6-25-11.5-36.8-18.9A167,167,0,0,1,56,95.1,185.76,185.76,0,0,1,11.6,77.9"/><path class="cls-2" d="M69.9,0c-13.4,68.4,32.5,89.5,70.9,107.2,15.1,6.9,29.1,13.4,39.1,22,.7.6,1.3,1.2,1.9,1.8,1.3-16.5-.1-28-3.7-36.4-4.4-10.3-12.3-16.2-22.4-21.8h0c-3.3-1.8-6.7-3.5-10.2-5.3C123.7,56.3,95.9,42.3,69.9,0"/><path class="cls-1" d="M169.1,66c9,5.8,16.1,12.8,20.7,23.6,3.9,9.1,5.7,20.7,5,36.5,2.2-4.5,4.2-9,6-13.7,6.9-17.5,12.6-31.9,41.4-35.5-4.9-4.7-9.2-8.7-12.2-10.7l-.9-.6-.6-.8C218.4,52,208,47.7,197.7,49.4c-9.3,1.6-18.9,7.7-28.6,16.6"/><path class="cls-3" d="M274.12,78.73H285V93.48c4-9.16,13-16.18,26.93-16.18V89.19c-16.33,0-26.93,9.16-26.93,26.2v33.08H274.12Z"/><path class="cls-3" d="M315.5,113.68c0-20.48,13.61-36.38,32.94-36.38,11.17,0,21.05,4.58,26.21,13.61V78.73h10.88v69.74H374.65V136.3c-5.16,9.17-15,13.61-26.21,13.61C329.11,149.91,315.5,133.87,315.5,113.68Zm59.15,0c0-14.61-10.46-25.78-23.77-25.78-13.89,0-24.21,10.88-24.21,25.78,0,14.75,10.32,25.63,24.21,25.63C364.19,139.31,374.65,128.28,374.65,113.68Z"/><path class="cls-3" d="M391.26,78.73h11l19.77,44.54a125.63,125.63,0,0,1,5,13.89,125.63,125.63,0,0,1,5-13.89l19.62-44.54h11L432.07,148.9h-10Z"/><path class="cls-3" d="M463.86,113.68C463.86,93.48,479,77.3,499,77.3c18.61,0,33.36,16,33.36,36,0,2-.28,4.15-.28,4.29H475.18c1.71,13.89,12.45,22.63,25.34,22.63A34.27,34.27,0,0,0,522,132.72l4.73,8a42.7,42.7,0,0,1-26.35,9.17C480.62,149.91,463.86,135.73,463.86,113.68Zm57.71-4.44c-1.14-12.89-11-22.2-23.2-22.2-11.88,0-21.62,9.16-23.19,22.2Z"/><path class="cls-3" d="M543.05,78.73h10.89V90.62c4.86-8.45,13.89-13.32,24.2-13.32,17.47,0,25.2,10.6,25.2,28.93v42.24H592.46V107.66c0-12.89-4.73-19.76-17.33-19.76s-21.19,9.74-21.19,21.34v39.23H543.05Z"/><path class="cls-3" d="M638.56,139.31l4.44-8.88a31.85,31.85,0,0,0,22.77,9.17c9.6,0,17.47-4.44,17.47-10.75,0-7.3-8.45-9.3-16.89-11.45-12.89-3.29-24.64-6.88-24.64-20.19,0-12.61,13.18-19.91,24.92-19.91a39.45,39.45,0,0,1,23.77,7.45l-4.29,8.88a32.92,32.92,0,0,0-19.33-6c-7.16,0-13.9,4-13.9,9.45,0,6.88,7.74,8.45,15.9,10.17,12.6,2.87,25.63,7.59,25.63,21.34,0,14.75-15,21.34-28.64,21.34C651.6,149.91,642.57,143.46,638.56,139.31Z"/><path class="cls-3" d="M704.72,78.73h10.46v12c5.15-9,15.32-13.46,26.63-13.46,19.34,0,32.94,15.9,32.94,36.23s-13.6,36.38-32.94,36.38c-11,0-21-4.59-26.2-13.61v32.37H704.72Zm58.86,34.8c0-14.75-10.31-25.63-24.2-25.63-13.32,0-23.77,11-23.77,25.63s10.45,25.78,23.77,25.78C753.27,139.31,763.58,128.43,763.58,113.53Z"/><path class="cls-3" d="M782.62,113.68a36.66,36.66,0,0,1,73.32,0c0,20.19-16.18,36.23-36.66,36.23S782.62,133.87,782.62,113.68Zm62.15,0c0-14.75-11-25.78-25.49-25.78s-25.49,11-25.49,25.78c0,14.6,11,25.63,25.49,25.63S844.77,128.28,844.77,113.68Z"/><path class="cls-3" d="M866.68,78.73h10.89V93.48c4-9.16,13-16.18,26.92-16.18V89.19c-16.33,0-26.92,9.16-26.92,26.2v33.08H866.68Z"/><path class="cls-3" d="M919,127.57V87.76H908.5v-9H919v-15l10.88-2v17h23.78v9H929.83v40.09c0,9.6,4.16,12.32,9.74,12.32A20.75,20.75,0,0,0,951,136.3l3.58,8.45a28.71,28.71,0,0,1-16,5.16C926.25,149.91,919,143.89,919,127.57Z"/><path class="cls-3" d="M959,139.31l4.44-8.88a31.85,31.85,0,0,0,22.77,9.17c9.6,0,17.47-4.44,17.47-10.75,0-7.3-8.44-9.3-16.89-11.45-12.89-3.29-24.63-6.88-24.63-20.19,0-12.61,13.17-19.91,24.91-19.91a39.45,39.45,0,0,1,23.77,7.45l-4.29,8.88a32.92,32.92,0,0,0-19.33-6c-7.16,0-13.89,4-13.89,9.45,0,6.88,7.73,8.45,15.89,10.17,12.6,2.87,25.63,7.59,25.63,21.34,0,14.75-15,21.34-28.64,21.34C972.08,149.91,963.05,143.46,959,139.31Z"/></g></g></svg>