<svg xmlns="http://www.w3.org/2000/svg" viewBox="0 0 467.73 444.61"><defs><style>.cls-1{fill:#fff;}.cls-2{fill:#300075;}.cls-2,.cls-3{fill-rule:evenodd;}.cls-3{fill:#ae00cc;}</style></defs><g id="Layer_2" data-name="Layer 2"><g id="Layer_2-2" data-name="Layer 2"><ellipse class="cls-1" cx="235.31" cy="222.31" rx="232.43" ry="222.31"/><text/><text/><path class="cls-2" d="M120.45,319.55c-21.66,6.61-47,11.3-77.22,12.28,88,76.89,157.09,28,215-13.05,19.16-13.56,37.22-26.35,54.86-34.36-16.31-1-35.51.81-55.84,2.7-23.43,2.17-48.22,4.47-72.59,3.28-17.28,10.39-37.94,21.14-64.22,29.15"/><path class="cls-3" d="M62.62,169.93c37.74,110.56,122.06,102.75,192.74,96.19,23.36-2.17,45.39-4.21,64.67-2.33-13.63-9-31.12-17-49.65-25.55C250,228.87,228.52,219,208.79,206.65a282.61,282.61,0,0,1-71.85-7.86,313,313,0,0,1-74.32-28.86"/><path class="cls-3" d="M160.35,39.53C137.83,154.06,214.7,189.42,279.14,219.06c25.25,11.62,48.79,22.44,65.43,36.78q1.69,1.44,3.27,2.94c2.25-27.64-.16-46.82-6.13-60.88-7.3-17.19-20.6-27.22-37.45-36.45h0c-5.54-3-11.18-5.9-17.1-8.9-36.8-18.66-83.3-42.23-126.77-113"/><path class="cls-2" d="M326.48,150.12c15,9.73,27,21.43,34.66,39.51,6.46,15.22,9.54,34.7,8.32,61.13a226.36,226.36,0,0,0,10.08-23c11.56-29.3,21.06-53.37,69.35-59.46-8.14-7.81-15.33-14.55-20.38-17.87l-1.45-.94L426,148.14c-17-21.57-34.35-28.68-51.6-25.8-15.56,2.59-31.72,12.81-47.91,27.78"/></g></g></svg>