<svg xmlns="http://www.w3.org/2000/svg" viewBox="0 0 464.86 444.61"><defs><style>.cls-1{fill:#fff;}.cls-2{fill:#300075;stroke:#300075;}.cls-2,.cls-3{stroke-miterlimit:10;stroke-width:7px;fill-rule:evenodd;}.cls-3{fill:#ae00cc;stroke:#ae00cc;}</style></defs><g id="Layer_2" data-name="Layer 2"><g id="Layer_2-2" data-name="Layer 2"><ellipse class="cls-1" cx="232.43" cy="222.31" rx="232.43" ry="222.31"/><path class="cls-2" d="M120.45,322.19c-21.66,6.61-47,11.3-77.22,12.27,88,76.9,157.09,28,215-13,19.16-13.57,37.22-26.35,54.86-34.37-16.31-1-35.51.82-55.84,2.71-23.43,2.17-48.22,4.47-72.59,3.28-17.28,10.39-37.94,21.14-64.22,29.15"/><path class="cls-3" d="M62.62,172.57c37.74,110.56,122.06,102.75,192.74,96.19,23.36-2.17,45.39-4.22,64.67-2.34-13.63-9-31.12-17-49.65-25.54-20.37-9.37-41.86-19.25-61.59-31.59a283.07,283.07,0,0,1-71.85-7.86,313,313,0,0,1-74.32-28.86"/><path class="cls-3" d="M160.35,42.17C137.83,156.69,214.7,192.06,279.14,221.7c25.25,11.61,48.79,22.44,65.43,36.77q1.69,1.45,3.27,2.95c2.25-27.65-.16-46.82-6.13-60.88-7.3-17.19-20.6-27.22-37.45-36.45l0,0v0c-5.54-3-11.18-5.91-17.1-8.9-36.8-18.66-83.3-42.23-126.77-113"/><path class="cls-2" d="M326.48,152.76c15,9.73,27,21.43,34.66,39.51,6.46,15.22,9.54,34.7,8.32,61.13a227.34,227.34,0,0,0,10.08-23c11.56-29.31,21.06-53.37,69.35-59.46-8.14-7.81-15.33-14.56-20.38-17.87l-1.45-1L426,150.78c-17-21.57-34.35-28.68-51.6-25.8-15.56,2.59-31.72,12.81-47.91,27.78"/></g></g></svg>